<?xml version="1.0" encoding="UTF-8" standalone="no"?>
<!DOCTYPE svg PUBLIC "-//W3C//DTD SVG 1.1//EN" "http://www.w3.org/Graphics/SVG/1.1/DTD/svg11.dtd">
<svg width="100%" height="100%" viewBox="0 0 1800 1800" version="1.1" xmlns="http://www.w3.org/2000/svg" xmlns:xlink="http://www.w3.org/1999/xlink" xml:space="preserve" xmlns:serif="http://www.serif.com/" style="fill-rule:evenodd;clip-rule:evenodd;stroke-linejoin:round;stroke-miterlimit:2;">
    <g transform="matrix(0.82738,-7.72782e-05,9.70501e-05,1.03907,-63.0726,-116.226)">
        <g transform="matrix(0.82475,6.89363e-21,0,1.16401,106.616,-248.95)">
            <path d="M1957.81,726.215L1957.81,1320.09C1957.81,1369.98 1886.13,1410.42 1797.71,1410.42L766.385,1410.42C677.966,1410.42 606.287,1369.98 606.287,1320.09L606.287,726.215C606.287,676.329 677.966,635.889 766.385,635.889L1797.71,635.889C1886.13,635.889 1957.81,676.329 1957.81,726.215Z" style="fill:rgb(78,75,73);"/>
        </g>
        <g transform="matrix(0.810708,6.77626e-21,-2.25017e-17,0.810708,189.863,144.986)">
            <path d="M773.77,841.449C746.909,822.571 744.348,789.88 768.056,768.491C791.763,747.103 832.818,745.064 859.679,763.941L1109.27,939.349C1136.13,958.227 1138.69,990.918 1114.99,1012.31C1091.28,1033.69 1050.22,1035.73 1023.36,1016.86L773.77,841.449Z" style="fill:rgb(255,192,0);"/>
        </g>
        <g transform="matrix(0.810708,6.77626e-21,-2.25017e-17,0.810708,189.863,144.986)">
            <path d="M1023.07,939.453C1049.86,920.449 1090.99,922.338 1114.86,943.67C1138.72,965.001 1136.35,997.749 1109.56,1016.75L859.968,1193.81C833.179,1212.82 792.052,1210.93 768.186,1189.6C744.319,1168.27 746.692,1135.52 773.481,1116.51L1023.07,939.453Z" style="fill:rgb(255,192,0);"/>
        </g>
        <g transform="matrix(0.570314,0.0002745,0.000304252,0.810707,606.382,70.26)">
            <path d="M1129.22,1298.89C1078.3,1298.95 1036.9,1275.84 1036.84,1247.31C1036.79,1218.78 1078.09,1195.57 1129.01,1195.52L1618.26,1194.96C1669.18,1194.9 1710.58,1218.01 1710.63,1246.54C1710.69,1275.07 1669.39,1298.28 1618.46,1298.34L1129.22,1298.89Z" style="fill:rgb(255,192,0);"/>
        </g>
    </g>
</svg>
