<?xml version="1.0" encoding="UTF-8" standalone="no"?>
<!DOCTYPE svg PUBLIC "-//W3C//DTD SVG 1.1//EN" "http://www.w3.org/Graphics/SVG/1.1/DTD/svg11.dtd">
<svg width="100%" height="100%" viewBox="0 0 1800 1800" version="1.1" xmlns="http://www.w3.org/2000/svg" xmlns:xlink="http://www.w3.org/1999/xlink" xml:space="preserve" xmlns:serif="http://www.serif.com/" style="fill-rule:evenodd;clip-rule:evenodd;stroke-linejoin:round;stroke-miterlimit:2;">
    <g transform="matrix(0.983403,2.39272e-06,2.39272e-06,1.00902,-47.5495,-189.933)">
        <g>
            <g transform="matrix(0.932248,0,0,0.9811,65.2816,38.6344)">
                <path d="M1441.67,580.376L1441.67,1542.86C1441.67,1571.98 1429.18,1599.91 1406.94,1620.51C1384.7,1641.1 1354.54,1652.67 1323.09,1652.67L603.988,1652.67C538.498,1652.67 485.408,1603.51 485.408,1542.86L485.408,580.377C485.408,551.252 497.901,523.32 520.139,502.725C542.378,482.131 572.54,470.561 603.989,470.561L1323.09,470.561C1388.58,470.561 1441.67,519.727 1441.67,580.376Z" style="fill:rgb(0,65,90);"/>
            </g>
            <g transform="matrix(1.30076,0,0,1.38117,-190.5,-263.24)">
                <path d="M1145.15,645.188L1145.15,773.699C1145.15,777.565 1143.48,781.273 1140.5,784.007C1137.52,786.741 1133.48,788.277 1129.27,788.277L645.133,788.277C636.362,788.277 629.252,781.75 629.252,773.699L629.252,645.188C629.252,641.322 630.925,637.614 633.903,634.88C636.882,632.146 640.921,630.611 645.133,630.611L1129.27,630.611C1138.04,630.611 1145.15,637.137 1145.15,645.188Z" style="fill:rgb(0,155,213);"/>
            </g>
            <g transform="matrix(1,0,0,1,-22.4897,6.74057)">
                <path d="M810.789,929.957L810.789,1061.62C810.789,1065.3 809.286,1068.84 806.611,1071.45C803.936,1074.05 800.308,1075.52 796.525,1075.52L664.866,1075.52C656.988,1075.52 650.602,1069.29 650.602,1061.62L650.602,929.957C650.602,926.27 652.105,922.734 654.78,920.127C657.455,917.52 661.083,916.055 664.866,916.055L796.525,916.055C804.403,916.055 810.789,922.279 810.789,929.957Z" style="fill:white;"/>
            </g>
            <g transform="matrix(1,0,0,1,-22.4897,241.713)">
                <path d="M810.789,929.957L810.789,1061.62C810.789,1065.3 809.286,1068.84 806.611,1071.45C803.936,1074.05 800.308,1075.52 796.525,1075.52L664.866,1075.52C656.988,1075.52 650.602,1069.29 650.602,1061.62L650.602,929.957C650.602,926.27 652.105,922.734 654.78,920.127C657.455,917.52 661.083,916.055 664.866,916.055L796.525,916.055C804.403,916.055 810.789,922.279 810.789,929.957Z" style="fill:white;"/>
            </g>
            <g transform="matrix(1,0,0,1,-22.4897,476.686)">
                <path d="M810.789,929.957L810.789,1061.62C810.789,1065.3 809.286,1068.84 806.611,1071.45C803.936,1074.05 800.308,1075.52 796.525,1075.52L664.866,1075.52C656.988,1075.52 650.602,1069.29 650.602,1061.62L650.602,929.957C650.602,926.27 652.105,922.734 654.78,920.127C657.455,917.52 661.083,916.055 664.866,916.055L796.525,916.055C804.403,916.055 810.789,922.279 810.789,929.957Z" style="fill:white;"/>
            </g>
            <g transform="matrix(1,0,0,1,232.843,6.74057)">
                <path d="M810.789,929.957L810.789,1061.62C810.789,1065.3 809.286,1068.84 806.611,1071.45C803.936,1074.05 800.308,1075.52 796.525,1075.52L664.866,1075.52C656.988,1075.52 650.602,1069.29 650.602,1061.62L650.602,929.957C650.602,926.27 652.105,922.734 654.78,920.127C657.455,917.52 661.083,916.055 664.866,916.055L796.525,916.055C804.403,916.055 810.789,922.279 810.789,929.957Z" style="fill:white;"/>
            </g>
            <g transform="matrix(1,0,0,1,232.843,241.713)">
                <path d="M810.789,929.957L810.789,1061.62C810.789,1065.3 809.286,1068.84 806.611,1071.45C803.936,1074.05 800.308,1075.52 796.525,1075.52L664.866,1075.52C656.988,1075.52 650.602,1069.29 650.602,1061.62L650.602,929.957C650.602,926.27 652.105,922.734 654.78,920.127C657.455,917.52 661.083,916.055 664.866,916.055L796.525,916.055C804.403,916.055 810.789,922.279 810.789,929.957Z" style="fill:white;"/>
            </g>
            <g transform="matrix(1,0,0,1,232.843,476.686)">
                <path d="M810.789,929.957L810.789,1061.62C810.789,1065.3 809.286,1068.84 806.611,1071.45C803.936,1074.05 800.308,1075.52 796.525,1075.52L664.866,1075.52C656.988,1075.52 650.602,1069.29 650.602,1061.62L650.602,929.957C650.602,926.27 652.105,922.734 654.78,920.127C657.455,917.52 661.083,916.055 664.866,916.055L796.525,916.055C804.403,916.055 810.789,922.279 810.789,929.957Z" style="fill:white;"/>
            </g>
            <g transform="matrix(1,0,0,1,488.176,6.74057)">
                <path d="M810.789,929.957L810.789,1061.62C810.789,1065.3 809.286,1068.84 806.611,1071.45C803.936,1074.05 800.308,1075.52 796.525,1075.52L664.866,1075.52C656.988,1075.52 650.602,1069.29 650.602,1061.62L650.602,929.957C650.602,926.27 652.105,922.734 654.78,920.127C657.455,917.52 661.083,916.055 664.866,916.055L796.525,916.055C804.403,916.055 810.789,922.279 810.789,929.957Z" style="fill:white;"/>
            </g>
            <g transform="matrix(1,0,0,1,488.176,241.713)">
                <path d="M810.789,929.957L810.789,1061.62C810.789,1065.3 809.286,1068.84 806.611,1071.45C803.936,1074.05 800.308,1075.52 796.525,1075.52L664.866,1075.52C656.988,1075.52 650.602,1069.29 650.602,1061.62L650.602,929.957C650.602,926.27 652.105,922.734 654.78,920.127C657.455,917.52 661.083,916.055 664.866,916.055L796.525,916.055C804.403,916.055 810.789,922.279 810.789,929.957Z" style="fill:white;"/>
            </g>
            <g transform="matrix(1,0,0,1,488.176,476.686)">
                <path d="M810.789,929.957L810.789,1061.62C810.789,1065.3 809.286,1068.84 806.611,1071.45C803.936,1074.05 800.308,1075.52 796.525,1075.52L664.866,1075.52C656.988,1075.52 650.602,1069.29 650.602,1061.62L650.602,929.957C650.602,926.27 652.105,922.734 654.78,920.127C657.455,917.52 661.083,916.055 664.866,916.055L796.525,916.055C804.403,916.055 810.789,922.279 810.789,929.957Z" style="fill:white;"/>
            </g>
        </g>
    </g>
</svg>
